# xmcd
#
# Track frame offsets:
#	225
#	14952
#	31678
#	48534
#	64227
#	78219
#	95778
#	115745
#	132735
#	148940
#	164913
#	177244
#	191909
#	205968
#	217781
#	224624
#
# Disc length: 3243 seconds
#
# Revision: 0
# Processed by: cddbd v1.5.1PL2 Copyright (c) Steve Scherf et al.
# Submitted via: audiograbber 1.83.01
#
DISCID=050ca810
DTITLE=Various Artist - Country Ballads CD3
DYEAR=1900
DGENRE=Country
TTITLE0=Juice Newton and Willy Nelson - Touch Me
TTITLE1=Ray Price - You're The Best Thing That Ever Happened To Me
TTITLE2=Shania Twain - Send It With Love
TTITLE3=Emmilou Harris and Carl Jackson - Something Else To Keep Your Memory Gree
TTITLE3=n
TTITLE4=Boxcar Willie - You Are My Sunshine
TTITLE5=Don Williams - I Believe In You
TTITLE6=Stella Parton - I Wanna Hold You In My Dreams Tonight
TTITLE7=Bellamy Brothers - For All The Wrong Reasons
TTITLE8=Patsy Cline and Mila Mason - Crazy Dreams
TTITLE9=Roger Davis and Honky Tonk Union - I Never Thought About It
TTITLE10=Glenn Campbell - Since I Fell For You
TTITLE11=David Allan Coe - Standing To Close To The Flame
TTITLE12=John Anderson - I'm Just Here To Love You
TTITLE13=Johnny Paycheck - Slide Off Of Your Satin Sheets
TTITLE14=Waylon Jennings - It's So Easy (To Fall In Love)
TTITLE15=Juice Newton and Melissa Manchester - You've Lost That Lovin' Feeling
EXTD=
EXTT0=
EXTT1=
EXTT2=
EXTT3=
EXTT4=
EXTT5=
EXTT6=
EXTT7=
EXTT8=
EXTT9=
EXTT10=
EXTT11=
EXTT12=
EXTT13=
EXTT14=
EXTT15=
PLAYORDER=
